<svg aria-hidden="true" style="position: absolute; width: 0; height: 0; overflow: hidden;" version="1.1" xmlns="http://www.w3.org/2000/svg" xmlns:xlink="http://www.w3.org/1999/xlink">
<defs>
<symbol id="icon-arrow" viewBox="0 0 55 32">
<path fill="#4f2ee8" style="fill: var(--color1, #4f2ee8)" d="M24.722 19.049c0.69 0.697 1.648 1.129 2.706 1.129s2.016-0.432 2.706-1.129l0-0 17.445-17.486c0.691-0.696 1.648-1.127 2.706-1.127 2.106 0 3.813 1.707 3.813 3.813 0 1.048-0.423 1.997-1.107 2.686l-17.486 17.486c-2.068 2.066-4.924 3.344-8.078 3.344s-6.010-1.278-8.078-3.344l-17.486-17.486c-0.684-0.689-1.106-1.638-1.106-2.686 0-2.106 1.707-3.813 3.813-3.813 1.058 0 2.015 0.431 2.706 1.127l0 0 17.445 17.486z"></path>
</symbol>
</defs>
</svg>
